# xmcd CD database file
#
# Track frame offsets:
#	150
#	18641
#	50052
#	70591
#	84141
#	101914
#	121442
#	135997
#	157609
#	172652
#	190523
#	210317
#	240984
#
# Disc length: 3617 seconds
#
# Revision: 0
# Processed by: cddbd v1.5.2PL0 Copyright (c) Steve Scherf et al.
# Submitted via: CDex 1.70beta2
#
DISCID=920e1f0d
DTITLE=Austin O'Brien - Now And Then
DYEAR=2007
DGENRE=Jazz
TTITLE0=Something
TTITLE1=Matador
TTITLE2=Danny Boy
TTITLE3=News
TTITLE4=Now And Then
TTITLE5=It's Impossible
TTITLE6=Mother And Child
TTITLE7=Ensemble
TTITLE8=Churchbells Chime
TTITLE9=Bedroom Popstar
TTITLE10=Sunny
TTITLE11=Somewhere
TTITLE12=Videos Track
EXTD=YEAR: 2007
EXTT0=
EXTT1=
EXTT2=
EXTT3=
EXTT4=
EXTT5=
EXTT6=
EXTT7=
EXTT8=
EXTT9=
EXTT10=
EXTT11=
EXTT12=
PLAYORDER=
